HIERARCHY
ROOT Hips
{
	OFFSET 0.000000 0.000000 0.000000
	CHANNELS 6 Xposition Yposition Zposition Zrotation Yrotation Xrotation 
	JOINT LHipJoint
	{
		OFFSET 0.000000 0.000000 0.000000
		CHANNELS 3 Zrotation Yrotation Xrotation
		JOINT LeftUpLeg
		{
			OFFSET 1.363060 -1.794630 0.839290
			CHANNELS 3 Zrotation Yrotation Xrotation
			JOINT LeftLeg
			{
				OFFSET 2.448110 -6.726130 0.000000
				CHANNELS 3 Zrotation Yrotation Xrotation
				JOINT LeftFoot
				{
					OFFSET 2.562200 -7.039590 0.000000
					CHANNELS 3 Zrotation Yrotation Xrotation
					JOINT LeftToeBase
					{
						OFFSET 0.157640 -0.433110 2.322550
						CHANNELS 3 Zrotation Yrotation Xrotation
						End Site
						{
							OFFSET 0.000000 0.000000 0.000000
						}
					}
				}
			}
		}
	}
	JOINT RHipJoint
	{
		OFFSET 0.000000 0.000000 0.000000
		CHANNELS 3 Zrotation Yrotation Xrotation
		JOINT RightUpLeg
		{
			OFFSET -1.305520 -1.794630 0.839290
			CHANNELS 3 Zrotation Yrotation Xrotation
			JOINT RightLeg
			{
				OFFSET -2.542530 -6.985550 0.000000
				CHANNELS 3 Zrotation Yrotation Xrotation
				JOINT RightFoot
				{
					OFFSET -2.568260 -7.056230 0.000000
					CHANNELS 3 Zrotation Yrotation Xrotation
					JOINT RightToeBase
					{
						OFFSET -0.164730 -0.452590 2.363150
						CHANNELS 3 Zrotation Yrotation Xrotation
						End Site
						{
							OFFSET 0.000000 0.000000 0.000000
						}
					}
				}
			}
		}
	}
	JOINT LowerBack
	{
		OFFSET 0.000000 0.000000 0.000000
		CHANNELS 3 Zrotation Yrotation Xrotation
		JOINT Spine
		{
			OFFSET 0.028270 2.035590 -0.193380
			CHANNELS 3 Zrotation Yrotation Xrotation
			JOINT Spine1
			{
				OFFSET 0.056720 2.048850 -0.042750
				CHANNELS 3 Zrotation Yrotation Xrotation
				JOINT Neck
				{
					OFFSET 0.000000 0.000000 0.000000
					CHANNELS 3 Zrotation Yrotation Xrotation
					JOINT Neck1
					{
						OFFSET -0.054170 1.746240 0.172020
						CHANNELS 3 Zrotation Yrotation Xrotation
						JOINT Head
						{
							OFFSET 0.104070 1.761360 -0.123970
							CHANNELS 3 Zrotation Yrotation Xrotation
							End Site
							{
								OFFSET 0.000000 0.000000 0.000000
							}
						}
					}
				}
				JOINT LeftShoulder
				{
					OFFSET 0.000000 0.000000 0.000000
					CHANNELS 3 Zrotation Yrotation Xrotation
					JOINT LeftArm
					{
						OFFSET 3.362410 1.200890 -0.311210
						CHANNELS 3 Zrotation Yrotation Xrotation
						JOINT LeftForeArm
						{
							OFFSET 4.983000 -0.000000 -0.000000
							CHANNELS 3 Zrotation Yrotation Xrotation
							JOINT LeftHand
							{
								OFFSET 3.483560 -0.000000 -0.000000
								CHANNELS 3 Zrotation Yrotation Xrotation
								JOINT LeftFingerBase
								{
									OFFSET 0.000000 0.000000 0.000000
									CHANNELS 3 Zrotation Yrotation Xrotation
									JOINT LeftHandIndex1
									{
										OFFSET 0.715260 -0.000000 -0.000000
										CHANNELS 3 Zrotation Yrotation Xrotation
										End Site
										{
											OFFSET 0.000000 0.000000 0.000000
										}
									}
								}
								JOINT LThumb
								{
									OFFSET 0.000000 0.000000 0.000000
									CHANNELS 3 Zrotation Yrotation Xrotation
									End Site
									{
										OFFSET 0.000000 0.000000 0.000000
									}
								}
							}
						}
					}
				}
				JOINT RightShoulder
				{
					OFFSET 0.000000 0.000000 0.000000
					CHANNELS 3 Zrotation Yrotation Xrotation
					JOINT RightArm
					{
						OFFSET -3.136600 1.374050 -0.404650
						CHANNELS 3 Zrotation Yrotation Xrotation
						JOINT RightForeArm
						{
							OFFSET -5.241900 -0.000000 -0.000000
							CHANNELS 3 Zrotation Yrotation Xrotation
							JOINT RightHand
							{
								OFFSET -3.444170 -0.000000 -0.000000
								CHANNELS 3 Zrotation Yrotation Xrotation
								JOINT RightFingerBase
								{
									OFFSET 0.000000 0.000000 0.000000
									CHANNELS 3 Zrotation Yrotation Xrotation
									JOINT RightHandIndex1
									{
										OFFSET -0.622530 -0.000000 -0.000000
										CHANNELS 3 Zrotation Yrotation Xrotation
										End Site
										{
											OFFSET 0.000000 0.000000 0.000000
										}
									}
								}
								JOINT RThumb
								{
									OFFSET 0.000000 0.000000 0.000000
									CHANNELS 3 Zrotation Yrotation Xrotation
									End Site
									{
										OFFSET 0.000000 0.000000 0.000000
									}
								}
							}
						}
					}
				}
			}
		}
	}
}
MOTION
Frames: 8
Frame Time: 0.008333
10.981629 25.247411 10.377729 27.220855 65.023450 53.861493 10.960292 0.387650 -2.754479 -3.085678 -30.872518 -50.845138 3.117465 18.480246 44.501135 2.994468 12.106166 6.592184 5.672700 -14.103500 -43.653700 -15.661169 -3.025705 -0.582923 28.488980 25.149337 -38.256821 -1.337571 -14.914813 34.929971 -2.373482 -7.577741 17.266615 -1.927400 8.713200 -24.902200 -2.302380 -2.107545 -17.078524 1.576352 -2.682448 -5.434140 0.109679 -1.791840 9.311274 -11.242573 -0.009660 -2.210947 12.252921 -2.518562 16.974129 2.793800 -0.406500 3.262600 19.594889 -2.613327 0.034067 -99.755362 -16.955050 62.622036 39.957547 -43.503750 -21.788890 -2.099665 0.150507 -3.173903 29.203805 -19.488000 -11.416000 -7.125000 0.000000 0.000000 1.896700 7.579800 -1.630900 -13.695918 1.051648 0.240006 102.113565 -12.571987 30.748916 -52.517225 53.953503 -30.909217 0.319253 2.413375 -9.358447 -12.473734 -41.661551 9.223200 7.125000 0.000000 0.000000 38.737600 -71.272000 -25.390800 
11.023624 25.172060 10.445315 32.592383 67.966500 58.982845 10.963561 0.304260 -2.828093 -3.689911 -30.142707 -51.079997 3.387494 18.765173 45.498546 2.934832 12.179472 6.088748 5.660600 -14.091200 -43.604000 -15.620280 -3.059357 -0.492933 27.437695 25.582700 -38.167940 -1.345146 -14.894295 34.813828 -2.252627 -7.254612 16.553468 -1.947600 8.756100 -25.035400 -2.516577 -2.290991 -17.086404 1.580153 -2.854021 -5.470085 0.251397 -1.884081 9.256739 -11.188180 0.002501 -1.930252 12.269839 -2.565773 17.013359 2.781800 -0.427100 3.204000 19.645499 -2.590052 0.105719 -98.308829 -16.697153 61.829778 40.795962 -44.060729 -22.477852 -2.106712 0.152867 -3.182692 29.244195 -19.552879 -11.472800 -7.125000 0.000000 0.000000 1.917300 7.496200 -1.651700 -13.683592 0.966582 0.226416 101.919822 -13.045202 30.613449 -52.191094 53.833361 -30.624300 0.185974 2.426347 -9.444092 -10.168281 -42.407768 7.606800 7.125000 0.000000 0.000000 42.947500 -71.005300 -28.206300 
11.071634 25.082164 10.523181 38.692070 70.402092 64.848512 11.013673 0.244848 -2.907355 -4.469255 -29.042565 -51.094051 3.620415 18.990791 46.349100 2.881472 12.470578 5.394721 5.355100 -13.772900 -42.335200 -15.559601 -3.038529 -0.378957 26.182610 26.619232 -37.918394 -1.301624 -14.824100 34.535256 -2.145462 -7.287073 15.701149 -1.795700 8.426800 -24.018100 -2.834226 -2.320468 -17.126781 1.510259 -2.793872 -5.519578 0.340566 -1.865275 9.111525 -11.135969 0.027691 -1.573375 12.293928 -2.611430 17.036427 2.772200 -0.448200 3.126300 19.681125 -2.582515 0.166037 -96.918697 -16.410758 60.952980 41.573598 -44.558191 -23.121615 -2.102448 0.129616 -3.485433 29.094843 -19.395554 -11.315100 -7.125000 0.000000 0.000000 1.843100 7.713400 -1.579900 -13.685234 0.878669 0.224075 101.913100 -13.711450 30.476228 -51.858821 53.726632 -30.352493 0.220451 2.410600 -9.025829 -10.323375 -41.935391 7.661800 7.125000 0.000000 0.000000 41.718500 -70.725300 -27.070100 
11.123909 24.976848 10.601157 46.286212 72.535480 72.375069 11.108824 0.232403 -2.974395 -5.163986 -27.929149 -51.423503 3.890396 19.239515 47.277257 2.813247 12.390602 4.966769 5.263400 -13.674400 -41.948700 -15.443465 -2.983425 -0.274937 24.738285 27.603953 -37.910991 -1.272139 -14.787070 34.305796 -2.026044 -7.146546 14.802900 -1.704200 8.220700 -23.386600 -3.046400 -2.330873 -17.363323 1.402499 -2.719993 -5.560191 0.232183 -1.840029 9.098020 -11.123933 0.035963 -1.433692 12.300578 -2.630935 17.044012 2.780500 -0.458300 3.091000 19.700606 -2.566270 0.220342 -95.512312 -16.383683 59.857692 42.164051 -44.940170 -23.604044 -2.084191 0.093292 -3.984954 28.729235 -19.093273 -10.981500 -7.125000 0.000000 0.000000 1.641400 8.138700 -1.393100 -13.713321 0.799760 0.223704 102.134471 -14.245173 30.220063 -51.642010 53.684645 -30.192711 0.394828 2.383069 -8.321922 -12.709941 -40.818308 9.263900 7.125000 0.000000 0.000000 36.657400 -70.717500 -23.485600 
11.177934 24.861143 10.671258 55.635536 74.393671 81.749887 11.222249 0.281532 -2.998858 -5.635377 -26.988253 -52.024128 4.208792 19.533704 48.369519 2.761821 12.161804 4.879150 5.366900 -13.785400 -42.384700 -15.297706 -2.894932 -0.201704 23.446256 28.255680 -37.983564 -1.260631 -14.735222 34.038883 -1.882966 -6.535343 13.963012 -1.989600 8.844500 -25.310000 -3.060103 -2.407026 -17.644065 1.351711 -2.807274 -5.621713 0.110017 -1.877856 9.087475 -11.056318 0.051296 -1.466547 12.247385 -2.589902 17.040225 2.759200 -0.436000 3.091600 19.720866 -2.525200 0.271700 -94.077264 -16.332096 58.410478 42.516112 -45.177934 -23.844751 -2.086360 0.107936 -4.475052 28.630494 -19.375249 -11.108500 -7.125000 0.000000 0.000000 1.534600 7.806900 -1.312400 -13.731294 0.751325 0.208478 102.273923 -14.575758 29.915494 -51.576257 53.679452 -30.133646 0.361656 2.363743 -8.792309 -12.327804 -40.562741 8.939000 7.125000 0.000000 0.000000 36.550000 -70.380700 -23.150000 
11.230975 24.736470 10.740484 65.962672 75.842995 92.152970 11.323027 0.378899 -2.996266 -5.709807 -26.181303 -52.621640 4.523957 19.852661 49.504268 2.740728 12.611012 4.242592 5.106200 -13.502400 -41.279500 -15.184616 -2.743113 -0.147384 22.279364 29.234291 -37.990143 -1.228104 -14.660466 33.706980 -1.752824 -6.031588 13.138224 -2.265300 9.398100 -27.048900 -3.046737 -2.346817 -17.944572 1.322264 -2.760368 -5.700719 0.175153 -1.827045 8.996079 -10.887719 0.081509 -1.392207 12.169487 -2.548180 17.041130 2.691700 -0.408500 3.066700 19.794935 -2.437994 0.337967 -92.288344 -15.772653 57.201254 43.992453 -46.013700 -25.081696 -2.112450 0.135212 -5.041141 28.549221 -20.102035 -11.492100 -7.125000 0.000000 0.000000 1.389400 6.963600 -1.211100 -13.727708 0.689758 0.193857 102.299691 -15.099315 30.007787 -50.978418 53.488479 -29.650206 0.479738 2.388580 -7.473454 -13.538751 -40.674411 9.855500 7.125000 0.000000 0.000000 35.413600 -70.900200 -22.761600 
11.290249 24.594299 10.806758 77.340739 76.750083 103.600087 11.384812 0.518639 -2.969233 -5.653965 -25.428154 -53.269253 4.880756 20.199043 50.729321 2.697846 12.994784 3.442084 4.920400 -13.293600 -40.477800 -15.131115 -2.538871 -0.124145 21.087380 30.512518 -37.900159 -1.192603 -14.582763 33.400624 -1.655264 -5.719832 12.461673 -2.401200 9.655900 -27.869500 -2.965351 -2.184666 -18.273288 1.298044 -2.606375 -5.767337 0.246049 -1.710017 8.928773 -10.867167 0.093008 -1.314894 12.168190 -2.546873 17.028300 2.687300 -0.406700 3.041400 19.850627 -2.370303 0.393790 -90.737369 -15.472712 55.963956 45.167737 -46.651592 -26.072878 -2.114665 0.130510 -5.500199 28.293076 -20.261235 -11.469600 -7.125000 0.000000 0.000000 1.203100 6.823700 -1.051900 -13.733854 0.652636 0.177593 102.252614 -15.542486 29.792608 -50.758451 53.426859 -29.489948 0.555667 2.422997 -7.322924 -14.997352 -40.905544 10.984400 7.125000 0.000000 0.000000 34.212600 -71.603400 -22.441300 
11.357726 24.432333 10.861549 89.550708 76.878872 115.829051 11.366196 0.680474 -2.908355 -5.892355 -24.576915 -54.001130 5.269158 20.543748 52.037860 2.676027 13.045036 3.277640 4.954300 -13.332200 -40.625000 -15.163261 -2.334728 -0.130555 19.837724 31.624696 -37.664670 -1.148453 -14.447854 32.993863 -1.584019 -5.427417 12.011081 -2.665000 10.131800 -29.404700 -2.938601 -2.349438 -18.539374 1.428143 -2.902773 -5.831906 0.615173 -1.808361 8.956101 -11.363516 0.213995 -1.509099 12.173675 -2.331315 17.002618 2.820600 -0.318600 3.076600 19.895509 -2.285057 0.416423 -89.758210 -14.996966 54.099547 46.454733 -47.296363 -27.170044 -2.100248 0.014353 -6.238044 28.292047 -19.190551 -10.858200 -7.125000 0.000000 0.000000 1.356600 8.105400 -1.152100 -13.714462 0.659110 0.142583 101.326836 -15.740712 30.530287 -50.563812 53.337630 -29.351837 0.590714 2.470188 -7.803528 -16.253763 -41.084560 11.966800 7.125000 0.000000 0.000000 33.144100 -72.210800 -22.117900 
